<svg id="Layer_1" data-name="Layer 1" xmlns="http://www.w3.org/2000/svg" viewBox="0 0 122 104.88"><defs><style>.cls-1{fill:#fff;}</style></defs><title>fossil</title><path class="cls-1" d="M-238,321.73c2.26-.61,4.29-1.22,6.35-1.69,2.47-.56,5-1,7.46-1.46,2-.33,2-.42,2.22-2.47a31.82,31.82,0,0,1,.73-5.34c1.84-7,6.69-10.8,13.6-12.27a18.77,18.77,0,0,1,12.22,1.46c9.38,4.42,7.14,14.18,1.83,18.27-2.5,1.93-4.89,1.59-6.83-1.1a9.09,9.09,0,0,1,1.44.09c3.06.73,5.29-.43,6.39-3.37,1.94-5.2-1.24-10.61-7-11.57a17.44,17.44,0,0,0-10.8,1.47c-7.49,3.69-9.46,13.92-3.82,20.39,5,5.74,11.5,7.39,18.74,5.86,8.39-1.78,14-6.85,16.34-15.23a15.81,15.81,0,0,0-.68-10.38c-3.48-8.41-9.48-14.47-18.49-16.09-11.71-2.11-22.55.34-31.17,9.25a22.49,22.49,0,0,0-4.19,6,49.85,49.85,0,0,0-4.67,15,13.54,13.54,0,0,0-.09,2A6.21,6.21,0,0,0-238,321.73Z" transform="translate(264.49 -256.42)"/><path class="cls-1" d="M-155.13,346.35c-6.26-9.1-12.44-18.15-23.1-23.15-6.52,9.81-15.54,13.11-26.93,10.71a186,186,0,0,0-7.32,23.64C-197.5,364-169.84,363.21-155.13,346.35Z" transform="translate(264.49 -256.42)"/><path class="cls-1" d="M-176.07,303.22c8.09-8.19,18-11.84,29.36-12.29a18.83,18.83,0,0,0-.54-1.91c-6.73-16.21-18.28-26.87-35.57-30.91-2.28-.53-2.41-.48-3.5,1.54a56.45,56.45,0,0,0-6.76,24.4c-.08,1.53.82,2,1.87,2.48a28.53,28.53,0,0,1,12.81,11.79C-177.57,299.78-176.94,301.37-176.07,303.22Z" transform="translate(264.49 -256.42)"/><path class="cls-1" d="M-146.27,292.53a49.89,49.89,0,0,0-11.7,2.16A48,48,0,0,0-174.55,303a2.54,2.54,0,0,0-1.06,2.9,24.34,24.34,0,0,1-1.65,14.89,3.69,3.69,0,0,0-.22.7,4,4,0,0,0,0,.67C-166.91,326.5-160,335-153.38,344-143,336-138.84,306-146.27,292.53Z" transform="translate(264.49 -256.42)"/><path class="cls-1" d="M-227.68,290.16a34.19,34.19,0,0,1,16-6.73A37.38,37.38,0,0,1-194.53,285c.5-9.73,2.33-18.82,6.94-27.34a7.56,7.56,0,0,0-1.68-.67c-9.56-1.11-19-.65-28.08,2.83l-8.49,3.25-10.32,4c-.74.29-1.47.61-2.32,1A45.65,45.65,0,0,0-227.68,290.16Z" transform="translate(264.49 -256.42)"/><path class="cls-1" d="M-240.06,268.5c-1,.2-1.7.31-2.39.5A88.68,88.68,0,0,1-261,272.23c-3,.17-3.51.72-3.45,3.79a14.85,14.85,0,0,0,2.82,8.26,58,58,0,0,0,4.29,5.37c1.91,2.14,4,4.16,5.92,6.24,3.84,4.06,7.33,8.37,9.5,14.2,3.23-7.61,7.35-14.09,13.6-19.32A40.62,40.62,0,0,1-240.06,268.5Z" transform="translate(264.49 -256.42)"/><path class="cls-1" d="M-206.19,333.71c-6.8-2.93-13.16-6.14-15.72-13.92a6.7,6.7,0,0,0-1.51,0c-4.3,1-8.6,2-12.9,2.93a2,2,0,0,0-1.73,2.47c1,13.13,6.76,26.37,24.06,32.14.7-2.63,1.35-5.26,2.12-7.86s1.63-5.15,2.54-7.69S-207.33,336.62-206.19,333.71Z" transform="translate(264.49 -256.42)"/></svg>